<mxfile host="Electron" modified="2023-11-01T00:24:35.652Z" agent="Mozilla/5.0 (Windows NT 10.0; Win64; x64) AppleWebKit/537.36 (KHTML, like Gecko) draw.io/22.0.2 Chrome/114.0.5735.289 Electron/25.8.4 Safari/537.36" etag="hq94gKJ9q5ns_qsdtxrI" version="22.0.2" type="device">
  <diagram name="Page-1" id="BwDuMqkkn7XrJ0L36vQT">
    <mxGraphModel dx="1548" dy="894" grid="1" gridSize="10" guides="1" tooltips="1" connect="1" arrows="1" fold="1" page="1" pageScale="1" pageWidth="1100" pageHeight="850" math="0" shadow="0">
      <root>
        <mxCell id="0" />
        <mxCell id="1" parent="0" />
        <mxCell id="_PgXoPrQOseA2Y3eEaYu-1" value="AKS - Azure Kubernetes Service" style="swimlane;whiteSpace=wrap;html=1;" vertex="1" parent="1">
          <mxGeometry x="80" y="40" width="580" height="400" as="geometry" />
        </mxCell>
        <mxCell id="_PgXoPrQOseA2Y3eEaYu-2" value="" style="image;aspect=fixed;html=1;points=[];align=center;fontSize=12;image=img/lib/azure2/containers/Kubernetes_Services.svg;" vertex="1" parent="_PgXoPrQOseA2Y3eEaYu-1">
          <mxGeometry x="10" y="30" width="68" height="60" as="geometry" />
        </mxCell>
        <mxCell id="_PgXoPrQOseA2Y3eEaYu-4" value="debezium Namespace" style="swimlane;horizontal=0;whiteSpace=wrap;html=1;" vertex="1" parent="_PgXoPrQOseA2Y3eEaYu-1">
          <mxGeometry x="110" y="190" width="450" height="200" as="geometry" />
        </mxCell>
        <mxCell id="_PgXoPrQOseA2Y3eEaYu-18" value="" style="group" vertex="1" connectable="0" parent="_PgXoPrQOseA2Y3eEaYu-4">
          <mxGeometry x="70" y="20" width="320" height="160" as="geometry" />
        </mxCell>
        <mxCell id="_PgXoPrQOseA2Y3eEaYu-11" value="Kafka Connect&lt;br&gt;debezium-cluster&lt;br&gt;&lt;br&gt;&lt;br&gt;&lt;br&gt;&lt;br&gt;&lt;br&gt;Debezium MySQL plugin&lt;br&gt;demo-cdc-connector" style="shape=process;whiteSpace=wrap;html=1;backgroundOutline=1;verticalAlign=top;spacingTop=16;" vertex="1" parent="_PgXoPrQOseA2Y3eEaYu-18">
          <mxGeometry width="320" height="160" as="geometry" />
        </mxCell>
        <mxCell id="_PgXoPrQOseA2Y3eEaYu-17" value="" style="shape=image;verticalLabelPosition=bottom;labelBackgroundColor=default;verticalAlign=top;aspect=fixed;imageAspect=0;image=data:image/png,iVBORw0KGgoAAAANSUhEUgAAAKAAAABSCAYAAADTld8/AAAAAXNSR0IArs4c6QAAAARnQU1BAACxjwv8YQUAAAAJcEhZcwAAEnQAABJ0Ad5mH3gAAABfaVRYdFNuaXBNZXRhZGF0YQAAAAAAeyJjbGlwUG9pbnRzIjpbeyJ4IjowLCJ5IjowfSx7IngiOjE2MCwieSI6MH0seyJ4IjoxNjAsInkiOjgyfSx7IngiOjAsInkiOjgyfV19exmaWQAAIrxJREFUeF7tnQecVdW1xhd96FV6L9K7SFEUBCIgUqKiIlJsWPKSlxdNMc+8vLzkvaiJLfYSUZqC0ntHaSpVUVB6770MQzPrv+5d18N9M8PMhfyGCedLtnfOObvvb6+91tr7HHJ8r5AQIbIIOaO/IUJkCUIChshShAQMkaUICRgiSxESMESWIiRgiCzFP5WAoYcnxIVwSf2A586dM9LlyJEjFvweyJkzp90LEcJxSSQgBINoIJ5gQTKCICFDhLgkEpAsvldinTx5Ug4cPCgH9h+Q5OQTcvbsWcmTJ48ULFhQipcoIaVKlZJcOXNpqT8QM8SVjYsioCfl99ixY7L2u+/kiy++kBXLV8j2bdvk1KkUJV8hqVylsjRt1kxat2kj5cuXl3z58kmuXLlsSQ5xZSNhApLMJdjRo0dl2JChMnHCBNmyZYtJvjNnzhBLhV0OyZU7lyTlS5KySr6HBg2S69teL8WLF7e0IQmvbCRMQHQ5CLhl8xYZP26sTJo4SXbs2CEpKSn2HBJCT7LPGZV2LL9VqlaRvv3ulRvbtZNy5crBUX0ekvBKRUIj7wbHvn37ZIkuuZMnTjbJl5ycbIRD7ytZsqRUqlRJihQtKrlz57b7p8+clu90mR43dpwsX7ZMl+hTpg8mOAdC/AsgMdGjhEH6rV+3Tj799FNZv369STyAodG8eXO5tXt36XXbj6Vbt27SqFEjKapEJA2ScMXy5fL5Z5/LNtUTuQ4t4ysXuX6viP6dcSiRINzsWbN16Z1oBghISkqSG264QQbcN1D69L1Hrm3ZUtrqdYniJdQy3i9bt2414wOLOW/evFKyVEmpW7eukQ9yuk4Z4spBpiQgRHHd79ChQ7J121bZu3dvjDhNmzaVzl26yDUtWlg8Astvu5vayx139pYSJUoYcc/qffTFTRs3WVqkYEi+KxMJa/9HjxyRE8ePG6EgEOSsXaeOuVyQcsCXV65Lly4tdevVjT07rmkPHz4ctZZDPfBKRaYJ6ESBOGfPRowRX0Lz50+ypdUlpT8j5FQLOH9S/piki0jIs7G0acHz8uDX/IbI/sg0AZ0sSfnzq86Xz6QcgBQ7duyUgwcPWpwgqSAr0m7nzp0WD0DUJCWkS894cC8YHGn9HSJ7IqElmIEvVqyY6nQlVerlt2UYwq1csUJWfbVKDqt+6BKLZ3t275Zvvv5avvnmm8iSrXGLa/qrrrrKlmQnpcNIp/f4hby4d44ogQ8fOmwGD75G7pPO4oZEzLbIlBXsko2BR4Ih0TAk9quFi7GBlNuzZ4+cOJEs5cqVtzSbNm2Ujz/6SEZ/PFqOqN4Y8QmKNGnWVNq1bydVqlY1AnneTiic15CV/L/4/HNZuGCh+Q4xfCBfwQIFpWChgrE0gL9DZC8ktBPihgd+wDGjR8sbr79hg889XDFIR/yB+QsUkOMqsSAlVrNLRZ7jqrnr7rttS457waWYQw1fffmlTJ0yVVar1Nx/4EBkh0WfQ2CkbuUqVaRt27bSvWcPuwZO4hDZBwkRkCSEk8knZfny5fLeu+/K/Pnz5fTp0zEiQSrz+UWzd3IQfnzbbXL7HbdLk6ZN7XmQNLa78vkXMnHiBFm5cqUcPHDQJF4wH/4uVKiQ1KhRw/yMPXr2lAoVK8Qs7GB+IS5vJOSIdhLkzpNbChcqbA5lltfjJ07I6VOn7JkHj8+Sjc7XslUr6X1nb6lbr55JM39OXFwzy5ctlw9HjLAdFg45eB78Qm6PC9lZ+tetXWvl4+YpUqSIPQsJmH2Q2E6IwgeZJbdixYpSpUpVMxZYKiEHyyhxIBnEqF69ui2Zjzz2mNSsVUuS8uWzwwpGKJWWOZRc3337rUyZPEml38QY8Ti6VbgwJC8lJUqWlLx6fU5VAKQiaTFK9u7Zazpn9RrVMy0FvRyQ0TRZhfTqmp3aEcRFnQcEJIcQ2mrTDdHZxo0dKyOGjzCSlC1bVnr26qWhp+ltRhCK1PhBvY9Oe+/dwTJYl3P2iIlHfvVUUt7c+Wa5qUMHc/2Q/+iPPzajhMMMvszf0/ceDX2VhDViOuWFBoJ44PtzUamp/yfd5Qba5yF6wyYsdSbEnkfbwz2MuOyAi+7tYGM5BVOjZk1p2KiRSUaGn1MxSL8KKiV9cOk8Jx+BPHapRb1hwwYzWLiGHJCP5RqdsWq1anaYtXXr1tJ/wEDpdms3ywsQl7RrdTnOKCjXScpxsBw5L08DxieJ1TPab368DXj/Rdqh9zXQv9kFl6ymdASAhCyb+Pq0V2wJhozogMHOdHg6iHfgwH5bvnlO3BbXtpBmzZtLGZWi5EvgeFfDRg312bWm9wXT79yx47y80wJpkK67d+2y42FI1bXfrbX9ac/vcgB94H2xb+9eWbpkqUybOlU+GjlKlnyxxJz+tAMPg7Vj9WpZs2aNbNm8+TzD7XLGJSEgDfUZSWedPn3GDhwAOujc95G/XeIQ3zvHCXPkyFHVIU/a345qKjlLqeES7Ej+RidE58Oo8XvJagAdO3bcrskzLSJ62Sc0Pq8PjFd1YeSHI82dNF8Nn2BZWQmvB3r1sqXL7AzlyA8+kBHDhsuwoUPls8WLzGOAzr1h/QaZMH68jPrwQw0jZebMmWbQMRbe3ssVF01Aa6DqUMw4XCY7tm+32eqNTz6ZHJFOusRygAF90Xc5gp0TJI3fO3dW42ncIJn4m+e+j6z/sfv8eLxg/Hh43hykWLxwkTnIhw8bpiT8UObOnmPPPU5WIViHb9Uwe2/wYHnl5Zdl7JgxsmDBApXYq2X79h3WBow9/LFjR49RYg6TIe+/L1OnTDECZnU7MoKECRjsJP3LXkL6aNQo+eMf/kfeefttkzCQcOOGjTL47+/Kn/Q+ZwcPHT7MKXzTDyEjcUD5CuXNQU2eEIiATrd7955YWZAcYHxwH73vXDQ+fkEC8ZC6Xrd4ODmRxhg1gHpw36+zGt5+2jH4nb/L5599ZpIQ/c764ewZU2tQdTSmqSbcJw0qD9eex+WOhAjojSVsV4n3vs7QJx5/Qobq0rBixQrV5Q5YPAaZTkQCfqad+Pe335Gf/eTfZNyYsbJr127JpZ3lvsA1q9eYDgfIH2LO0qVk5ozpsll1Gqxd4qIjzp41SyZNmGB/cw99s0KFCratBy7U8f6cMuyvaFvciowH8WhHMPjEiYfXHeltwf7W+NE0PPd4wbw8P+4TWFqRbOs02IFfvYfq0alTJ3nxby/JXX3uloqVKlF1M6CA50O5wMtycB2LEwipwerB80D9gsHz9jzj25FRXNQSzAEDFOIxKv5XffWVWbJB3cOB5KITIeuyZctkxPDhMnnSJPl61SrL49WXXzH9Zd369ZGGa4C8HHadNnWavPHa60ret1X/GSYvvfCipf/661WxxiMNOItYu05tI5IT7EIgltfS6huXzPMnP+rjwcuwNAGgigArn7z4sb8jwf5W+CCllp/naSqNGhmsJPyNpMcPeuddd8l1118v1apVkwIFClhczzc9kK+XEx/iESMRz6LPg3H91+vKdbAdmUGmHdFe6NYtW0zX4G043gnxgfIKUKHg0uD3iYc+eOjQQVOiISEKNsstOg0SjaWFeKRlEDZv2mRlICU/W7zYJCK6D2DmtWjRQjp37Sr16teLleXlpQXKWrpkSaRcHWRIzGHamzt3trpTtgeW/ENaDyYRE4xwRg0tW+qi0sfBi1f7tV30z8aNG+0wBda1nRDSvMxDoPlTJrtH6MUYUEi8fNGzlCd1uWXyYdni73R9LuJT7RlzttuKcOq09scmWTB/gcWj3bxtyMl0Pgjg/cAvebB7dOzoUYtLeyiLTYFgmz0+K9n2bduj7dhor1Qc1HvsdtF2X5E4hMJpJfoUVQGPhxPyQsiUI5qoEINB/2DECBmjCvzXKsEozGcNehi6HL8cEjh67Kh2sgb9PXb0WCwueQUrCAE4wIBlyyDhUqAxxPXgncgAkA+B+D/995/J9W3bWnp/nha8uXtVLUCyTp482QabOvO+8l+ff97y1YgW94TWAeJvsBevIpIoT+48UqduXalZq6a1kXgse2wdMkirVn2laTAUtstxtcxpT7ny5aR+gwa2/11DrXsmFIN6OHpCqEjhItL2xhtsYCmLyUG506ZNMzcLbUfNuKN3bylcpLDUqlXLdpRy58otn8ybJ88887TsUb2YuvNqxPMvvRg57qbXtJhJhIrDiaKTKZHt0rx585grC5eWt+PsmbOScirF+uTLFStthWLCQzLv79ra9iZNmsjVta+OHRzZv2+/PmfLNZ/c2L6dHbdz/3B6RIwoYBmADxzYtWuXLY1f6bLrpIAgkKjNdW2ke48e9iYc11TcXt3UgZ43d56RlzTBQFqc1bf3vkM6qo6D3vHMn/8sixYtts53UA5NMctYG8drn7944nG5VjsQ/UgjpEu+jMLbiisJovzy8cdNj2W284zl7+m/PGtxPO7hI4dVL50oQ4cMsZ0cN5j8ORiruu/VtWvLU797ygwL+hApl1dJV17JVVclOBNh1sxZ8tKLL0ZTRUAfQe4XohPkDu0ryFipcuWYmysI71svHd8gaRdrnyL5eFZd2zHgvvvOm+Ankk8YSV/528umfyKpaUOsHRqHsWTbs0+fPjYpMDI5lEIc3vupVr2aFFT1ICNGXaYISAVhPEbA3r2R2WaN1GfMoAcHPSQdOnQw5djFfwH9ZRuNjqqsYZTqjORBWtIRD9L1UNLWqVfXXt/k/i+eeML0RSTBt2u+teWaQS2iRKtSrarNwBYtWxpxC9BQLYvyLgU8H8p++823TLKcOh2RGi21zIE6aFdffbVJLu7hxOarEBM0uAuKPHyyAeJxjdTDU8CE8TYh9dyiJR6E4pdrm3EBcN+C6pv8Bu8F4feYkF+uXGl6+ueLPzNJSJ2QxiznHX/UycoHqEbz5swxQu3avdvqRh7eHoP+TUlbt2yVwWp81tYJtWPH9lj5jKvzIiPIMAE9w1OqqyxbutR0MweSrmPHjnLjjTfaXiwNcklEZdi94PRLjhw5zYeFt57llTx5zqxB/+KXhnCPfeOCuoyz1DBQzEQGkIHiDCH6UFnVdVhiNCPLK6ONTgveieSDrsmeNjMb8tHrrVq3ll69eknzFtdYG6knfk8c2OxQsLPCoJEeFYTlCgnB1hg6EksySxu+PZ67Hgu8/uhPbEF2797ddEdUHO8r2s3uEP3dqEljlZbRz5tov/LcQTvoK4AqQN3mzZ0b0SX1Hvl37tJZ2rdvbxIX0L+LFi6UkSogcG/hoQD0N+OCAKFczndSL1aEbVu3mYrhOmoiyBAByZwG0iiOXKFYU7DfpzM7/ehHJuHowNQqg8WGztCmTRudXbtinUqeSA1mJumCadlHpvHEI6SWr96MEfBi4fmj90zRZWb+J59GXCAKtv94yf461RORXkgF8KXqP/NUB0NP8npW0cnTuHFjqd+wge1fMxkPHTqsut06O+PIx5tcr4uvNwPeoGFDXVEKqG61UjapAeZERcdlX5z+Ll2mjJS6qpQZIZZHtGtoA9dMELwSM2fMkLlKPkhDPcqrLorUg3zsz9MO7vNhqYVqyODNcPKVLlNayVpfGivZGVsn4BaVfui5HJ07dBDj6gevh/dLRpFhNwwFMLuZyQe18/jbRTMDwvJZuEgRkwo0yDs3GCBn46ZNTOEO5olu48tyMC3PrWHRxnEPUK432E+FXCzI45wuaxztYnfkE9VX9+jEYCCxKnF/8D0bN3S4j9RgmWbQAPVCSqFSPPDQg7ZUY1VzzQFcPszEPZYtBjMIbwPtL6PkatS4keBa8ng8p5+bNWtmOi96KOoLzIu3xOkZJjTEQ89ct3adqQvFdCXCOiZwaIR20OcYUEj8VatW2XVurQPltmrVWu67/z559LHH5BadfB10leves6epWg8NelhXhFaSv0DkxbJExyBTfkCUfzvvF5VWFEqHMSORcFQkPRC3qIp8150IDBp5MvjxiBFSfz0+4N7FNDo1kCdSedTIkTJdlywMCeqGBB708MNGIiQC8HZ+q6rE5k2bjYhWT60Pg3tr91sF8pAeCU9goqGK8Ik6DKer1PokflptwBAjX/JwnNF7R1UCYRxxP/gM0D/0renpasj87cWXzJtAPMjb/qabpP/AgaY3Ay+fJXS1WtwIAnM+a0DHxcjhADH50gbu84sgaaKC5Je//rWpGHx0KnakLZPIFAEhAktEHq0AhXnFcD/Ed1ZqIC7+MD/xQmAwyRMTPh7uiTerNxofeGc4IS8W5EsbeKsPJ/e+/ftNiqB/9r23r9ys+lKhwoVicb1cll22Fr0uSA1cKeivXl+ISYAYXNPWRro8N1CL109wxyOYNgi9ZdKJZ5Hr8/uMvqRvMHTefuutmAcBNaBz1y7yyE8ei+l8Dvp327atsTcZcZ0wvkwkXnPwtlEXFwhcEzAYMTDLlC2j6SLGR2aR4RQ0lk5kFuPjcSWciqAnrVHjAn8fFaYTvJLBwLKwQvWGI0ePnJcn7hQGLz6t9bgHhd1TUK53PuT0+4mCvJgUOIZ3q/Xn7pay5cra922QgtQzHvi+cCITl4HBMOJ0eHCHIhgAdWfprFatesziD8LjgWC6jIC86EOEAa4yQHqOszVQq9cMIr32MvnlLxzOSE2/j4RjV4n6ObwuwUA8vu3jE8nTZwYZIiCFkbl1nnau+XkKRpZcnkHAGdOnq3K62UiWGuiU775VRVctLRRXQJ4MHEeuaIw3zIHXHoNg7pw5dpCBI0fTp00zv+I2XS5Y1rzhiTQ+CMqnI9HxnGz4MJFynrfXzX/xCFAHrukLBiwizSPdGmxLENwvpEuitzktpNamC7XTCe7GD/mbBb5tu0lECGrQfCiZ/CDfWT9dpDBBo/Xjl/Sp1dHv02d58kbcOIkgwxLQK8c7GRwStS+c6j1vwAy1trAG8eKjUzAwSDOTLNoBHPqcPGmiuRXcbKczCMxAPnTJL9ek4frTTz6xo/0cRXr26Wc0PC0vPPecvPvOO2alojSbThQgYiKgTPyYvGXX5rrrTKcF+PfQCakL7TEEyuClLCeb94PX5UKgD05FJW16yEybiAvp2N1op1Yu+jb1w6E8VfXapUuXmv7uxHPYapbjByrwLEXjsTz79f+D3uP+sePHbFsyNZJmBBkmoBfAUsm6X+qq0qYMQzKeocC/+fob8tqrr8riRYtk3959ts+Jn4xTLW+8/roMeX+IxQM+ExkIDoM+o+TigAJ+MtwHkO1///gnO6e3csVKMwp27twla9WimzFjprzw/Avym1/+yqw38rAOieaZCJjt6Dw//4+fm9XLwEEotsNee+UV8/H5cu8DUkwnIcQFTBrbK1Xp7mT1Ngbhg79x4wbTuy4lGAfGA/fVADU22I2KWMqRnRAOcqDfasSIYaf3aSd6oev1AKOQtrANGWyvg2u2JCmLSYr+DBIhYaYJCNB1cC/gr6IBPOOX5ZfN86f/78/y0AMPyKAHH5JHH3lEXtSGM/sAMxR4w3yQcH5yXOunj/1EfvOrX8siJTHE8mUE+C9lkZZOgqSzZ8+OdSydkgggED41/Gu8h4KzlvIg4axZs1QNmCs7o3qVl4G/r2ixolYfApNr3tw5NtgAwhKXNloarTODytE0/G741IL9eilAWdqztl98/4MPRDcActikoF68+IVbxknFM3TD4sWLWV9TT1SLKZMm26T38Q22g2vSIyxQj9Cb/XlmkWECAgqmQkiLdu1ulE6dOpo/yskEIA0Vx9vPEskMoYLJJ5Jj5AM4dvvc08cCSwYNcM8/zl30Sl/GUeoZbPxnzFbyobE8pyxOA/NNGu45ORMB/jSWI9wVvPxUVskIMdEFR4/+2HaAkpWQlE8ZHAbA6GBVoJ7cmzF9hh2Jt28fRgfP8tZft7Q5WoY0ZwXx55cKTg6WWvoLh7N/BBTJxjbqwoULYkYK9cawrFGjpgkW+k8zsTGYOnmK+TjJM9gOBA2v0HIOFEc5115uZpHp41heEYiArsRgMEBszQUr4APi96wR+ouXnaXhllu62euWSFEUWfI5puTlqJCnJU3NmjXtpEv79u2kabOmdugUk//YsaPWoXQYx5/oPN4hIa9gmWkhteNYfEAdye6+Sowl9Cfqg0qB0YCEhHSQnYmB45rT4GxN0QYMJ3aJqB/5ksfu3btMwvMOCgRFmroqAigLSxvXBxIV+DLINp8fHsBB3UXjYMBYf2pI0QnB97kXzJ9vk5/+oC863Xyz5VlEJSHpt2zabGUyViknU0yHpy8pm0B5nJaBUADJzxE0PBa0A3UBicfRuJXLV9jXcTEIaV9w3OmTbrfeep4xl944XNSL6ThTK1aqaKc5Dh8+ovci0ofBIXjBDBy6SGm1dnFw9r7zTtMjOVFBHrg6MG62a4ezX0o60tPh3Xt0l779+plSzeue17S4xhoJIXyJQErhaOVFpapxHztKCxBwiRKQLys4Af08oLVN64qSxGkVjCPuRT7ClMskCocsQL58SZZ+g+p0DCJlI/Ejb9uttnOBrARs66EL8zYb4Aye9qJtY12IgKbjKuiPrl272sT39gUJSJsAFnCXW7pan9O/nBjfs2e3neujfhw6yJUrt1SvXs3208kHQmIlMyEhKZOJa/qH41aUgbManRuPB94MJHpS/iRVNdAJI8svZfLKbEYJmKkl2EGGNISA/tBvwAB59q/Pyr397rWtIjoTQCIawhLbqlUrue+B++WlV16WHr166iwtYxajK+x16taRctpxgPwhFls/HTp2sn1IpBBxWSIh7y06y/ibeyjEEJfZCahXevDn1jHRzon8Gfmbssgba7/PPffY3wSkPB2PO4g8aB9nAjt07CDXqfWMiOc+dYc0fI5ukhpW48eNt5eJeJGI/mACVa1WVfW0QpYHIA2Ir3ukRpG6McHThcYhH9+a8/Y01Xbc3ru3lhsxmGgfx8E4mcTf1IFlmP5m94O2cp+8Tqq03KjqxEw1/MaPGydzVN+GyGd00iNYECiuBwf7M6NIiIAg0iHRhur/2Ni+7fbb5cn//K3crwYInUylkHL9Bw6Q3/7uKdtPLKpLJKnoZnuROtrxO3RwfIOeQSCwE1GmzA9bVj6jaDj32VJidhOXZcaXKgbZ6xYPH2B+zWepnU8ebAWeSon4MD19iZIlpHWb1pFlT6UOA8XWG58OwUWE5KOUOnXqRPZ5Bww0C5q0xOXXytPA37QVXfZ3v/8vO1bP9xUpizgseS5FuCZAgu+jeZBfau4m/uIZbdAHloZJGcwDQnGA9uFHH424zxQsr5CQF8iQZMRFGvK1sSeffNJcUl63YDv0wtJz5K6/Ch4MtgoVIoKDOLhuqI/FzwASXoIdVA7QuWxMc4rDzpXNnWsdUV6XRb5gxSldlll7c1/TeAD84mvjn2/wUyU04KYON5mi764Ov88vjtWFKlU4qsW9okWL6NJYT1q2ahmLkx54nkt1SQ6CNlQ9lKW9WfNrjEy0hTxcWhGHfeAGDRraOUSUewYAXYvBza0BFQA3Ts2aaphUriQlS5ayOhUvUdwmZ/369c0gYIDxNRKfJRXJz/Euym/SuImpAl53fHNFChfS+jWS5tc0t5PLsa9OROPwX5ZT8nMVhcMK6Nbu6CaQhvL4N/vYFeFkNnViwtSoWcPiMsFpLysRko2Vh00Cdr4gLu2l7Zwc73rLLWassQJSNvEpO9KWFrGDKVbHaF1Tw0V/GwaQBTONAUOqoOs89eRvzUmMwYFEZD/V43jFSMds4R6HJt968007vUGFiTtAJSdSldlrszxKDCQdeshzf/mrEZBnSEtOCQ+8/35LS9y0Gu71RdfhNQF2AewEiBIddcHhXcMvkwpd0+8xYOiJENDBMyQZ1jz+T96TTkk5aT42BpAtR8jMbgnOedqBM5ozjcShbEhAPrSJz9+hd1I/2kI6O2avdXVYPC2TbUGPB9mIF+wD8iTwKgLLKtKWZ/yvXPlysXZ4+wBtQM+mj9lyxKrHyIN0FStWMlcPuio6slvCtAVDjfx8nNPDJSOgE4RlCevoD7//b/Nz1dNZhqhGKaZS1uhoIB2BdDh6X3v1Ndt5YKAByj4iHt0Epy/x6IhVq76WiRPGy0ejPrLBoGzOGfLBS4judaGMtEC5Xocg4tOkF8+fAf4OXqcHr188gmnTKzeIjMYD8XEc8eWmVb94eNnxSO1eWrhwKReAVVilCYA4vMuK74hZSXOZwbggcFXQMICDlr+pKIE82DDHp4gU4JoOQInnsxl8DYsTHhgaGAHvDX5XDYEJlhcgLrpmratrRe9cGJRLHYKBcuPh9bN2xsUPdjR/U4/z4gbfC9Zff8akSS0/7jm83LSeOzIaD6QWlxAEcVzC2jhF605g1fBAPk7SYF6EzOCiJCBJCRAPRzDfgsbRihvCDQqWFBR4lh8s5Hv797dTJrhuDHSKVhrxziuaSMDhw4ZbWsCyg16C24O8IDbLF6KfDkDPrKt61AMPPqjSr0tsKfH0F4I3/1LGD3Yp8eKvHZnJ60L1y2i8zCKYb1rtADxLpOyECehMxxG5bNlS+fCDD20XA4clpGCWWHW0UlQMnYk9SpTjfv37RY+dn29c4LrATzZsyBCTdOTjjaI8CMc1f/MLIdGtOKHLOynoV+TjMzPE5Y+ErGDnLEoyr2YOHzrUHKFuznvIg0JtMSMEgmAspfiz8ANigQHIRICkHPwsXqy4KbWmpOtvamIdqYrFimunc+cupkg7QQkhsgcSIqBLIza3Z0yfZsaA33MLDB8dr09CJshoPrdo2p2qy/FCDS4Wlleeu9Timt0VPlZEXPSRfJon9yEdEg93AhK0c+fOcufdd5lkdeKF5MteSGgJtuVVB5rPhXG6gvcOXLHGH8SWEtsx+IdwSfDO7ORJk82VwbLJ2/ftb2pvH9jhRR8nL3mShxOSJZiva61Zs9r8fuiaOIdxubB5zsfJAelD8mVPZIqATg4GmuXxnbfetm86+w4EVixbV7zw7BvmkIh/KYl/8+P5556za83EJGSv226TQY88bIR2AsbKUVLpDYuP9GTrh5ryz/9jaEBk0rjk9LQhshcS0tYZbKxcPqnLCQuXfvayTcMGdpqEOJCDZ7hYOJfGGTuu2bvl1U5OVzj5giCtH2WCaBgr7FWy58gyjGXsBLS4GkJkT2SagC4wOYVhHnUklQIy8NIzOppLSgek430JP2kMkGonT0Y+PpQagZxY8QRL6+8Q2ROZJqAPOqRiLxVwD8LxjWeIxbUTjb8JfFKXz/U6MXnOP+HqadOC5+XBr/kNkf2RaQI62GzGOWxLalSK8R0SDhWwrAI3LrjmwCbn4/wZ58aQiiylICTUlYlMEdClDxKLE9GVKlaKbZ0BPuTDRyt5bdIlFkYEH//m6+1sWpvk1PscmuRMHGkhanpSMMS/LhJyw7A/iJHA6Vh2QPguHocgIRI+QNwktTioWLSIfdqMU7bsB3P6hOIgJqei+w3ob0fu463gEFcOEiOgEg1w0ICP+Lz15luylZfST0c+ucGOBkssL7Hz6Qr2byEZRZGW82J88oLvrRCXNCH5rkwkpAMirQDn/iFT125d7fAi7hKIhMMYcvJOAwcHWIa5z6dtcVT36NnDjrtDPvbqQvJduUj4MALJnDjsAQ8fMtS+EMrLK0g7czgru1S2mfM4KV+SlFW9j6PrnKjFXQOczCGuTCRMQOBJ+WU3hJetefWQDzBy/u/UqRRdigvZ22ZNmzWzT5NhfOBIxhgJyRfiogjoIAu2ztD1Dhw8KAf2H5Dk5Mgnddk2Qx/kXQSWbL4lxzktpGe49Ia4dASMy8YJFnzm1yH5QjguyRoImXw5jSeiE9Dvh+6WEEFcEgmYFsg6JFuI9PBPtQJC8oW4EEIzNESWIiRgiCxFSMAQWQiRfwCOj40SAn+PNQAAAABJRU5ErkJggg==;" vertex="1" parent="_PgXoPrQOseA2Y3eEaYu-18">
          <mxGeometry x="34" y="1" width="78.05" height="40" as="geometry" />
        </mxCell>
        <mxCell id="_PgXoPrQOseA2Y3eEaYu-22" value="" style="shape=image;verticalLabelPosition=bottom;labelBackgroundColor=default;verticalAlign=top;aspect=fixed;imageAspect=0;image=data:image/png,iVBORw0KGgoAAAANSUhEUgAAAPIAAAAzCAYAAACt3FW1AAAAAXNSR0IArs4c6QAAAARnQU1BAACxjwv8YQUAAAAJcEhZcwAAEnQAABJ0Ad5mH3gAAABfaVRYdFNuaXBNZXRhZGF0YQAAAAAAeyJjbGlwUG9pbnRzIjpbeyJ4IjowLCJ5IjowfSx7IngiOjI0MiwieSI6MH0seyJ4IjoyNDIsInkiOjUxfSx7IngiOjAsInkiOjUxfV19J+qhBQAAGmlJREFUeF7tXQmUVNWZ/mrp6up9pxto9mZHWWRxwwVwXxLN5jLJJDFRMzOJ0UlmzpyJOc6Zk3MmZpJxTkxGs7qEREVNFEUQlE0WAUFEBJq1oemF3peq6q6urpr/v0u9+6qrmgZBwX4f/Nzl3fvX6+r33e+uD1eMAAcOHJzXEETesmO3Sjpw4OB8hCDy0y+8jk3bPlBZDhw4ON9gI/Lka/bLTBdA2RyTabIY/QkHfAiHfKjdXYpI2COuJWLioiP0r5tKu8jcVFGGnI72esiHFz0hL058mC0rJCBvdAQFk3vp86mu8sFxri/8UjzcAQSPxxA4GhF1HDgY7EggciVySoklJ0FPKA371lQg2JSpcizMuvsj+leTT4aARxAxxqEgtofq+nB4ZYGoYyKXiFw6h4gsyK/ruxFVocyXfkL1MTRvCSHa4wzzHQxuMDsMuIQau+gfGWqzp32ZEVxw4x4Ke1Q9E6zUTFwZwsVxST75cTLMKIqi4uY2iieCiK7q2Hxxnsi3/PhLfSi6JIfiDhwMbiQQmTrQQtxkqC2eb0u7MGruMU7YwPmsnkJ5RahUlELOj6o4mzcLKLmwW9XU4Hq6Lqs3m4qresI4jyytyIesigxV14GDwQkbkUl3heKKmKHEOs3/yLQkUX55AJlFIc4woBRTKKgsJz/GMENxc0ZFKbQgx8KWEicqOZRP06+/nFoEBw4GMZgJcfCEllTh/kJWXKmOHGYWdKnaEuY1qZ5SoaVKSzPLePzUVc8RMi9BUc6XZaTJ+sn8SEvL96nKDhwMTtiIrJW37xhZmlbDuDpSmJbRS6EB2/jWCG1KalyjfE+GQWStyGo83EeR2RKUXpZx4GDwgplgQCqvDrWJnLhCEnFYHQWBKC2IZ0Fc52taMVXcni/VVfvjJSoN25g4sW68fkI+hQ4cDGbYGNBenyOVN0GZLdVTSkkmFdKDzMIwF4ijs54nnqRSakuchTb9sN/0AovIvWGO689T9ZXJulbIZaRxngMHgxc2BgRb/aRurKrJxsQyTBy7ZhTal6CCzT6Rb1NNUV4rsVVfm88gcteJmKor/ZuKLuurayJf+3CI7GBww8aAlqMF6BCqrJRYjEWVgiaYVkwvjW/9+RaZmw/wDDK5TTkmtpRY+/LlW7cR642hbS/v2NJ12JdWXZmnP5vzrXIOHAxe9GHAnpUT0N2ZZqidVLyoMXbVqqiVsnB8QNUGwp0e1G7PkddEeaWkqq5Vz/LrzfEgZywTUqJtdxiBarW7S9WP1+E8vhftl43yHJzfGFJciIXz52LsqOEqx8GpIOWhiRGzalA2pUkRRxJKqCETSufF8z04uiEfbUf9oi4jPT+KIdPDyCyNJikvQ53H6d6IG8deDYJYGUfOpCxkV2QCad4+5W33EfOg+VXeGnr2MWXCGHzvW3eoFPCzXz+Lg0eqVerMY96safjGHbeoFPDjR5/EicZmlfpsoLAgDw8/eA8y/Oki/Ze/rsDaTdtF3MHAwKxIimPbh2HHkinYvXQc9q0chcpVI3BsWwmaDuUi2JJuqKRUxmFzO1VNie5WIuZaPw4uzUTVSh+qV3tRs96Dpl1udFa7SLktlWWFh9uNkvn2jR0dewOoe70BTeub0LKlmawRrVsa0PruCbRtqSOrRfuWGnRs7bvDzMH5gxlTJ8RJzLhsznQVczBQpCQyI9LtQajNj876TGEN+/JxdHMJKt8YhsOrh6CrxRdXSJfHhYqb2pGWZd+pFQkRqVvcCDW4Eax1oXUvUL8phurlvWja0Ytor6zPll6UhsI52dRPEFUFeNIt3BhGd00IYWFBhGsDwnpqO8k6hDk4f9HWYReBptZke/Ad9Id+idwfOuv82L+cFLoyUyorufJmxzD2pgAKJw7seGHHoV7qTocQaoypMTRvt/Sj9MZiCp3904MF7+3cg2VvbUDloaPYtecA/vzycnXFwUBhI3JWYRdySgPCskuDykLCskq74Pao3SEG6rbn4PjmHKXMcha5eHoEY2/tQfmVURTPiCJ7JOAv4XGzIbUaJOANawMIHSPyq1loty8N+bMLUXztUORfXILsyQVIH5qFtOIMeLKc7ZifRby6Yh1+8cRi/OqPS9DRGVS5DgYKG5GLKpoxflEVWTXGL6xGxcJajFvAdgJjFzRg6pdrMGZRIwrH2b/otiofmRw3y7GzC24a8qQPiSG3woWSuW6UXeHB0IVpKL8lHSWXpsNXaO8MNG/rpK48ryHL+hy6M9KQVpoF/4QCZM8ZitxLRyJv4VjkLaIx1YXO7KYDBxq2WeuRc+tQPJ7HJzyBxUSTXWbddRZpEfegvcaHY+ty2YeAj7rVIxZ1k5padazyhhn5bXvCaN9jHbrg7jQrsS5rq2/4MfM71uxFtCPxBNbpgdfPp04ci+FlJRhaWoyszAwxI73vYBWqqmsRjcYwefwYPPBta9b60V89g0NVx1UqOXhJZVT5UJQNKRLLLB2dAdTWN6K69gR27zso/KZC4qz1wz99Ag1NLUhL82L61AmYMHYkigvz0dreIXweO16PvQf4LS0DR0F+LiaNG4Uy+pmH0j3y98C+jtc1YE/lYbTT/abClAljT3nJiH0erLJm+tN9Plxz5TyVguhe8/dtgr+HkiL5IoqWtnZs2LJTxFOB/bFfBvtinyYmjBtJ390olQJ166tQefCoiOfn5WAaPQdTJ41Db6QXLfTd7qk8go8qD4nrJkaWl2HU8DIKhyIvJwuHj9aI7+793ZWqxCcDG5FHzK1HcUV7nDiCMNpMIql49YZsdFSnSU+EsnkR6kbH6JqHypOycsjlzfrKr1j7pXj9m22IBKyDF0XXlFH3Od2qTyF3t/VnJ/qJdIYRXLNL1P04KCrIw7fu/jzGjBymcuzgX84vf/+8IONAl5+yszJwx+evw+zpk1VOX9SdaBJjQh4fJkOy5SduYO7/2u3Iy03+uqTd+w7hqeeXnrSLypt+rr5sDj53/ZX00Fu/RxPd4TCWrdqAVeu3oLfXPpHJ+NIti7Bw/hyVGhheev1trFz7rkoBuUSARx/+nkpBfB/rNu9QKQluPLkRZRw+ehw/ffwZEU+FR3/8PeRmy1WQ9e++j8UvvSHiGkzkh+67W6WAXzy5mH7HTbjrtusx84IJKteOl5etxptrNos4/w6+9qWbqDEdL9KJOFpdh98u/ptodD8JMBsMMGkkQVLuzGJSqZ1ZJdPDcHstNQm3c3mzrPJFZvqJlyE/udPsb/jo7WBSG/XVri5ZXxtdU7vO3NmZSBs/gvJOHxdOGY9HfnhvShIzWKH//fvfxKgRQ1WOBLWDKmZHxehy/McP7+uXxAxuGB66/2584aYFKqd/lJYU4p+pfCoSM7hX8cgP7u1XKZm4P/iHr+LLty5KSWIGq9ptN16Nhx/8Fvzpn+35iZ8R+VORmHE7fQ/cAHDP4L6v3p6SxAxW6v/81/vjvYKzDc8jhJ2796O6ph65w4Ji77RJnKRKqtJunwuBeg8pKucJzpEiD0xJdb473YPAfqvr5slOh7eIZ8J1fR4zq1D4Neorn/QPIscbRP1TBRPioXvvsn3hrGTcQ1mxejN1t6oQ6e2lLmcxfGlpmFQxWpWS2LB1J3X17Mtffn86HqTWnpVGg7vnq9ZtwdvvbMWuvQfR2NSK4UOHwOvlBgsYR8SvrjmBuoYmkdYopzIzp01UKWDS+NFizbUnEsHWHbuxknzu2LUPwVAXhtAD5vV6RTlxr1T2HVKj3mhfJWXl4a65RntHAG+8vRFrN2/H5vd2iW5/QV4u9Srke9k4LKPvYNvOPSJtooF+Fu5RJDNeWuKhiokPPtqPI8esrnM6NRB9u9Z1KiVx8UVW17qVvu9T6VofPV7Xp2tdVJiHS2ZfqFLcnc4j//loaw+IbvSuvftRS70lj9tt+z1ynYox5fFGcs/+Kuznbjn9rAwepphg5U787LMBO5GHdyFTHIKwk40JJdMcStPxcKsHXU1chsgUdqFgkizbr5KqayLt9qKrrhvRLtm9dqV5kD6cvwxdX9XhUPkRhOY4txwUutLowT54eptC/vHrX0IpqaLGkWM1+PkTf8J7H+wV3V5+oHh5hEN+8L0e/kwLG4nwLa3tKiVxz52fi6s7j3+fXbIMS5auEg8vP/Q1PPbcf0R0+XinWF6OVFcekzE5Q13W648SicwPJ4/JH/vNX8RnHyfC8ViWybGJCMgNDo/DGZkZfmRm+vEhNRwmuAdi9gD45/vf3z0nxtb8M59obBHDhbWb3hMNQ8UY2ePh3gMT3iQZdx0TyauNfd167Xxk0H1o7DtQhReXvoWo0ZM5F4jMJH5t5TtYTN36DVvfF78f/k75OeDvlHtCGtz4dwZC1HV+Ba+uWIudVO4jGvdzo97Y3IYZ06wGkudG3lq/FREaa59NMDPiiJ8FZmO1i5vOZ3WUO7FEHoXwsnJKxKgN0OvBwoy4zJd1bCH5dNl8ROU18XlcRk68yfI6X9aXs+SU9qbuGvYHfjC5q6TBD+XP/2+xeFgTwQ/CU88tVanU4F/yzAss4v3huVcF4ZIhEAzhiadfUikIpZ07c6pKJQeTnJdoGptbVY6FtvZO4c8cl11x8cw+jc+1Bmm4Ef/dn19Bl9F4aDDXXlm+RkzgaCy4fGDjYe6uP3DvnWL7pQZPxP36qSWih3Ou4QA1XK+tXE/fob13xb8jbnAT8Tf6Xnbtka+PNsG9GW4QTLAqn23YiMzvm2aiaDWUCkpxoaD8MGijayKfTz9ZJGREguqark9hXE2FglomlZXGuX7ZHWREQ9arcOXt2f1YfpWxT+H31FE+rFTFJJ5+/jXRZU2FHR/uExNJJhLHyKONMTSTbtv7/e8Bb2pps3XNedKtP/BDwg9XKjBJeK+yBs9ADzO6tpxmldBYR13pVON8Bl86cNjq7SR2HZPB43Hj/r//oq1LzY3LY7/9C7rDyd68+uljBylvKjBhWYE1uKHnIUsq1Nbbh3l6eHI2wayIo7uVTz1JpZMKaK0L67h5jUNfwnPX1aDXgg3FtKUtX9qvJ9fqevUGwugNyhfUc914fSayKG/3w8bx08HI4RaR+QHjVvlk4O6WCSaGCZMkYfJ58zXzT2omkU5GlKPH7csyyXDIUFDGCOPn5OUlXrrSmDpxXNJ7Mo0n+jRYac190cnwjTtuxWQan2vw8tX/PPnnfhugTxsNSXo4Jnh5T6Oppf+yicuRPp/1fZ8t2Ijc1U5EjiseEcdQvnhcKbFM84vvPDyEjaOrkR9KeU2Wp7JCoVV9MhEXfmTcm2cRmdHTEKR8ri+Ny4i0UF67H8vvqWN42RAVgxhrDgSJk1GJajbCUHnuZt98zeUntUKDvCfrhvEk2cnA3WSTNKYyjhhepmISCy6fnfSeTJtGY3cTPPZOhc/fcJVtpr6rOyzG880J8wjnGrq6+w4tTASD1n6Hnp7+hwaJk5+fBAwKkiq1e9FUmSWVThBIKx7FhfpxaBnn86kl88UAnYcj6G7We6d1HelHxPU43PDnybU/vMGd1fFr1n2YSqzyDD+nA57p1cjKTP1wmkhUo0RFPtuq0x+JNPiezHLBkPWQns37mz9vBq6/+hKVogeehimP//55Mbl3JuEylSMFeLY5jn6GDp8V9PlG6rZn48SHROa40rFRsbgScxW75U+1TzbVr+5EqJparT4KyvWVv7hfN1zpacicYleKzrV70dsZTrgPMvYp7oPT0o+8p1NHjTGWKSkqpDbp5F30shJrhjsZjtdaPptp/MsbDU7FzPFtMpQU9/1vdhLBM6xmA2MSiZeVTDyzZFnS++jPkk0G8kztXbdfr1Jytp4n3gYyXBkIzM0o+f2soTO4EfskJpjOJSRlQONuP6pWZaPlYBp1t4koSg2FEgpV1GNXaelDPMibZleq5i0daN7agWB1N3qC1h5qq77dj29cCTz51qQAb7sMrNmF7n3ViDS0IUrdGbO+6Yfrnw5q6xpVjL4IIvH8eTNVKjnc1MpfMvsClUoOs3Hg8S4Tu/Lg0QEbL5X0h8vnzlCx1Ljq0otUTMK8J166MSecvB530vvozxInBMeMHC52xZmNx9MvvNZnYvDjwJyl5y2U/fVMeMlusCElA0JNbtRvS0fV8nTsX+LDwSVpqF7lRsN7brQfBMJtRCCqLtXQg9wJfSdAQse60Lq1FY0r6nDilWo0vF6N1nfqENjVjO5qatXFUIPqK6XPnGsfizF69lej693dCL25CaFla9G1bDW6l61C+I2V6HljOSLL3yB7TZU+NfDaHy/ZaHzh5gViSSoVblhwKamd/XriGJk3fujlH36w7/7C9f0qPW/c4HElbyIZCHi8OmfGFJXqC16XNonMEy+8nmti7cb3VAy4ceFlYq92f7hs7nSxpzsZeG33u/d82bbExVsZ393+oUqdGSS+FeXqy+yNlUaa14vP3XClSikkDH8+izglKeum57PjcAxNO6KoW9uDwFF+y6ZSV3I1/LZCZAxL/UDGIlH0NHUhdKgFndtr0b7xGHqaQ3FVdvl8yLp2Jilz/12nM4VwTw+ee+VNlZKk+tGD9+CGhZcix1gyYEIyyW+5dr7KSQ1e+P/Ti9a+3lkXTMID374T48fat5HqXWI/evCbYlzJW/542WYg+Oadt/bZ38xkvPO264hU1j5wRrKzvUtXro9vYmF1+8F3/k6Q1SQj/8y884w/66tfvBHf+foX+zRyrIoP3XeXTR1595rej3wmsePDStumipsWXY5br7tC7GfX4Pv7l3/6GsaNKlc5CoNgjJzynV0Dhb/Ei+L58jyyMCJk6Fg3godC6GmjMW7vyb/E9HFDkD55BNXX4103ug/UoLemAdH21CdvzhS+f++dfbZeMvTYsrgoXxCPwcqgd04xUp1++vpXbsbFF9m74TybzLPevK6YTAV/8+xfsX2XfT0z8dAEH97Qy0E8I8z3w+PBZOvPqzdsw/OvrFQpO3g/9nfv+YpKSfAadBN1Ydmv2D6asJGET/SYG1h4hp73n58q+CDGAz/6uUoN7NAEg/d8X3fVxSplgQ8oZGdnxmf/ufvP31EO5THWky/esWUi2aEJrpcKXFZvHuJyXL4/PPHov6nYyX2fCdgkoHBSD4bM6kHJrAhZL4pnxciAolkuFM10o+ACD7LK7arR1RBB3cp2IrAcv7Kll2chf34Jim8cgYIrhyF7RgkyJpJaVxTCNzwX3mL7u7m6D55A126eqZb1WeG9pGDpl89GOrW8afNmwzNpItwVFXCPHg132VD67Z98Y8JA8cQzL4vNHongjRRsmsR8Yue5v1kKznDRn2RY/NJyvLl2s+2IInefR48Y1ofErI78y04kMSOx6/7rp17EW+u3iDgfYhg5vKwPibnKynXv4qXX3lY5fcHj18f/8ILtiCITl4cOvBZukpgnmpa+uV40NJ8mlr+9EYnHGxl8QEGTmJe5+OQXn8EbTLCxkv+b07yKGBnxZJwLeWS5Y91kHuSM89I42IeieX4MvS4T/lJrkTvS0Yv2Pbyswb98NnLLs8v0MHjyM+AflY/MiUTmKaXIumgEci4dh6y58kiaRvhwPSIN3N3TPlidKfT54S4qhGfMGHjGT4B78jS4ZsyBe94VcJXbfZwuWCmfJDL/8bmlYj05mnDIgMn07IvLxPG7xF5aqgeGJ4Refn01fvr40+B9x6xyycA7hB7579+mbLHNCSQG39uSpW9R4/NSH589PRFxxO8XT/5JkPhkWyF5D/YjP/sNNvLBjxTrvMdq6vGTx36P11e90+d7+aTBO+X+65dP44VXV/UZ9/NSIivvTx77wzm/Zn02YOtal1wUQd5YfjhlF1l3l/X5Y53PROUxcdPGILrq5MPkcrtQeEUJvPn8Qj45022WN+vrkJeXAmt2i/oMD7Wqvkv5DYpMYp5Mk37E5yXxI/I/2ApXbRXFzxx4coqViRWvrSMgZnrPxEPMG0RKSI2ZgLyey6esPs6+Y55F5zEuH7rglxXwjqOPMxzkXVt8wokbD76/zkDQdoDjXAMfihhWViwmLPllAx/nZz/fkUDkKKkvZzOBFJHihGJlkMTSZIoEYqhfYc0m5s4ogH80d3EM4ony0o/Nr/LTtasKPVX1XF3AP382XNRttteXZvOn/NCPAGxeAbR9Mge4HTg4F8HsiEOQg4ii13h12p7PcWnuTC/8I6xZw3Brj8jXs9Acmju8TL/aj3e0/aB+b3vQKCN9yHtQ/oRpP7LbGyunsYADB4MYNiILdVPKJ9RPKCnHWflUKHZ4cb4cx/oKreWmSLPeiWX5ECbKq/oUijK8zY7y3dnZcBlrqFExvrHKyvLSdFreB///VHS//LfAfnDdgYPBBmaFAVI6Jg2rHYeUjiupyNdqLOOsivBaLiLtRGRxjeqI+ipu1Onjl8yVZa1DRmmsp5VX1DH8xI0LKjUWYZb9dUEOHAw22IjMhBEKaFNQyywl1tdkeTuYaIllVH1lOi2MfApZjUP1CtRuL+s+lF/em81llCILs9V34GDwwcbCaIRVjgijFFQrpqXE0vQ4VZc1ITaBqGuyviwj/jdHkd9/fXQEVD4Zk1eVlX6kCksllmE87cDBIIaNyD1tWpWVWirFTDxPLBWT87msnYiRlm55zfATryvUV9UX+UxWDi0fsXA3Yh2dRn0VxsfEOuSokXbgYBCDWRJHqFa+L0sooFBQVkErFEoqyMdpZQlEDtd22NRWjIdF+QQljufbbkEgVlsTry+UWGTyX6XEMkFRI+3AwSCGjUW94Riat/MGD6mc5ptALHWUZldMC5GGDoT28FE8qcR96islt/LZ7I1B9FAl0NwoyvAhcjEKZuVNDLXRHwcOBjPsLCQEjoTRtDWISBeLHatngpKKuA7l9USED9QjsKkS0TArfGJ9K5T5dAtJBDW2dR1i77+DWLCDypLmnsQcOBjMSH36ifjpy0+Tb7iMn6clEmr1Y0KqeLgm+d5Wl98nDF4vXG5WYJFr+eCQOBgNBIGg/f/IjcNDn59XAOQUIaZevp4MroNn9vyrAwfnEz72MUYHDhx82gD+H+abq4h50juVAAAAAElFTkSuQmCC;" vertex="1" parent="_PgXoPrQOseA2Y3eEaYu-18">
          <mxGeometry x="65.1" y="80" width="189.8" height="40" as="geometry" />
        </mxCell>
        <mxCell id="_PgXoPrQOseA2Y3eEaYu-21" style="edgeStyle=orthogonalEdgeStyle;rounded=0;orthogonalLoop=1;jettySize=auto;html=1;entryX=0.5;entryY=0;entryDx=0;entryDy=0;exitX=0.5;exitY=1;exitDx=0;exitDy=0;" edge="1" parent="_PgXoPrQOseA2Y3eEaYu-1" source="_PgXoPrQOseA2Y3eEaYu-6" target="_PgXoPrQOseA2Y3eEaYu-11">
          <mxGeometry relative="1" as="geometry" />
        </mxCell>
        <mxCell id="_PgXoPrQOseA2Y3eEaYu-5" value="strimzi Namespace" style="swimlane;horizontal=0;whiteSpace=wrap;html=1;" vertex="1" parent="_PgXoPrQOseA2Y3eEaYu-1">
          <mxGeometry x="110" y="40" width="450" height="120" as="geometry" />
        </mxCell>
        <mxCell id="_PgXoPrQOseA2Y3eEaYu-6" value="" style="shape=image;verticalLabelPosition=bottom;labelBackgroundColor=default;verticalAlign=top;aspect=fixed;imageAspect=0;image=data:image/png,iVBORw0KGgoAAAANSUhEUgAAARYAAABSCAYAAACR8/uBAAAAAXNSR0IArs4c6QAAAARnQU1BAACxjwv8YQUAAAAJcEhZcwAAEnQAABJ0Ad5mH3gAAABfaVRYdFNuaXBNZXRhZGF0YQAAAAAAeyJjbGlwUG9pbnRzIjpbeyJ4IjowLCJ5IjowfSx7IngiOjI3OSwieSI6MH0seyJ4IjoyNzksInkiOjgyfSx7IngiOjAsInkiOjgyfV19NLYDEAAAJaNJREFUeF7tnQd8FUX39w+hhA4BQm8JNbTQQ+9NpKjII9h4FAGpggI+CCrVByT8UQiKCCgCIlLlQUHp0nuoofcQOkkIJdR3frMzyebm3rtzS0J8P/PF9e7O3d3s3d357Zlzzsyme8YgjUaj8SI+4lOj0Wi8hhYWjUbjdbSwaDQar6OFRaPReB0tLBqNxutoYdFoNF5HC4tGo/E6aVZYnjx5SjGxcfT48WNRotFo/imkyQQ5CMrOPYdo264DVCqgKDVrFEJFCvmLbzUaTVonTQkLDmX/weO09H9racPm3RQZdY2yZM5E9UKq0YutG1LLJnUoR/ZsYm2NRpNWSTPCcv3GbfpxwW/057ptdO7CZXr48JH4xiC/fx6qWyuY3u7SjqpVKU8ZMmQQ32g0mrTGcxeW+PiHtHrdVvrq23l06fI1vuyI9OnTk3++3PRyu+b03lsvs/k84huNRpOWeG7C8ujRYzp+6hwXFDR7sOwKJYoVok+H9qLG9WpQpkwZKV26dOIbjUbzvEl1YYGAnL8URSv//JvmLvgfXb95W3zjHq2a16V3Xu9IlSuU4f4XLTAazfMn1YTl6dNnrKlzhVsni5avoYNHTohvPMc/nx916tCCWjerRxXLl6LMmX3FNxqN5nmQKsJyOzqW1jNBWbVmM23csieZY9YbwP8SVC6A2jSvTx3bNuVNJY1G83xIUWF5/OQJ7TsQQfN//Z3npFy/cYtbLilJ9mxZqGyZAOrySmtq17oRW84qvtFoNKlFiglLdMwdmjZrIS1dsZZZLHdSPYM2Z47sVKlCafqw71tUI7gCs2h07wWNJrXwqrBgVw/iH9LajTto2KgpFHsnTnzz/MiaJTO93vlF6v1uZ8qXN7d27mo0qYBXhAW7iLt7jw5HnKbvflhEm7fvczl8nNKUCixGfbr/ixrXq8kExo98fLTAaDQphcfC8pAJyJGIU/S/1ZtoxaqNdO36LfFN2gPWCsLTL7VtRvVqB1PuXDm0BaPRpABuCws2u3DpCi1c/idt3rqXDhz2Xvg4pcmVMzu1f6ExtW5Wn0JqVqLMvjo8rdF4E7eEBY7Z5b+vp9XrtvFeyE+ePBHf/HPIkD49FS9WkFo0qUNdX21LgSWKaOtFo/ESLgkLQsV7DxylsBkLaG94BN2Ju8stl38ySKYrVCAfvd+9M3V95QVRqtFoPMElYYGQTGWiMn32IlHy/w9oHh3atkQsaTQaT3A5ucMdAyVjxgxUrHgRKhlQnMqUCaDKlcvzqWLFslS6VAkqWqQg+fvnpdy5c1KWLJnZ+hl5Jm26VIzc/NMtL40mLeGyxTLluwU8pOwu+Qv4U8MGNXl2bN48flSkaCEuJLdvx9CNG7fo3PlIunU7mh48iKcH9x/wMHZ0tPHd3bh7PIyNZDtvC0HOHNno8PalYkmj0XhCqguLGfg3ypYNpPLlSlHevH5UJbgCt2hgtVC6dIQDu8fEJeryFTp79iITl9tccOLi4uj8uUus7ALFxNyheFb29OlTY6duooVFo/Eez1VYzPj4+FBAQDEqVqwwBbLmUfMWjagIayL5iFR8HKY8UFgtV6/eoMtR15gVc5eJSyzt23OAjhw+TtHM8nEnSqWFRaPxHmlGWMzAYsnnn5datmpEr7z6ImXPni3Bt4MPzENmZH9GdHaMiY6l2Ng7PEFv6cLf6PDBCHr00PFodLaktLDgNN+9d58182Jp265wOnbyLJ05e4lu3oqhggXyUh6/XHxMmbq1g6lg/ryULWtWnR2s+ceSJoVFAqfvZyMHU/2GtY2mETvSp5AUccTywOVP4N+z/8Fiib1zlyb+dyod3BOe8L0zUkpY8BqTS5ev0sQpP9K6v3dyawth+2fPnorPZzx/Bik0Pul8uIUGQQmuXI6G9P83Va8SRBkypBd7Mzhy7DQfeQ/DUaQkOI45346j+/fjqefAUaLUdYozy7N1i/oUXKkc76+FHCJVkNX9+fhvxZJzRgzuSVXZeZNcvX6Tfpj/G+3Zf0SUqPGvl1rTy+2a8fvPGU9Y8/vvrXto2syFokQdv9w5qX/PrlSlYlm+jHth26797LrO58spRamSRenjge/yB5nkvQ9GUnT0HbHkGIwW0LljK8qWLYsocUyaExZUohw5c1ChwgWoa9eXqXbdGnzgbAgKwNHKA04QFD4vP40mE6Z4ZrGs+n0d/TxzPncEO8PbwoKb7vSZizR73jL6efEqUeo6vr6+NH3ycAquWI7y5snFReibWQt52P/u3ftirZQBHTj3bvqFdyYNaf6mKPWMbFmz0MA+b1Dblg2ZZZbPsvIO/Xwy/bJktVhyTGDJIjT1y2Hc6pPs3HOQho2eQqfYdXCFXu+8Sh/0eoNZys6H3Lh85Tq9/f5wOnHqvChRp1pwEH3xaX8+MBmIY9dy8jdz6fs5KZfygHunfkgwqw8TRAnR9ZvRVKPxa2LJMdh2+OAefLRGq2sG0sRYAggt58uXh2rVrkpt2jajUWOG0tRvxlPdhiHkw4RGWilo+kjxgGWCeZQZk1EGFy5fj02INtWrX4tqhFTHn0k1MCD4ij820us9/uORqID4+Hjq3u9z6jt4HO/kCSf1wSMn6d4950LpDerXrcatCw/94klAc3Bc6Ex6l/2mxSvW8HdIOWP937vFnHMqIACQJ7dYMoiJvcvf/uAqGNQ9lj1ErThw6BidZs1ZdwgoXpj88/qJJeMhePqcawLoKqhnASWKiiWDg0eOiznnINCC41URFfDchAXOWj9mjjVoFEKvde1I7/ftRmO+GEaDBvehCpWDuJiYBYULiRAPtphYzuZtBQVr8O3ZvE/6DJQpUyb8yVQBojJz7jL64D8TvNYh08h4juDdKB49fsybJi4Ymm4DqwLW4skzrj+RrTh+8hyNmvAdb6rcfxAvSpNz/4GagAYwEx+dSs08ZJX1wQN1P5vkxKlzPP3BGRD40LCf3O7OgvGZs5iGUMWoinjtTUqSkT2kK1UwLCTJMXYdVMifz49bzKqkurBgRP0aNYPpg0E96MMhvanfgO7Uvceb1LR5I8rAvjMEwRAUTFJQUI1k2RNW0biYYOLzUlxkOS488UoYwRT58AHX2tjugpsNFsqU6d5tJ8PXUYOZzq+wdj9uwNTomwXTF+1xDJD167I/Ral3uceslx/mL6eI42dESVJwLVUtM1RS89MUuU43mTg8euz6MKiXIq/y/nDOWPHHBmatuG9hQASzmnwVjx89phs3osVSypCeCUugjcVy8rTaQwPjSufxyymWrEkVYYEJVqZsIP3nk/701dSxNHhoH2rXoRXVZ00d//z+9CydEAYuELA4jGUpKLyMTU/Y/zDJMj6xJfyT6xjlhsDs2raH5kyfQ9evXsdhpDhnzkXSkhVr+WBX3iSInbsJowZRxaDSdPZ8JN24lbI3IDAcykZUaoNic8Qd4IAePGISv162YFhTlfwkHGe2rJmTOIXvxN3jVhEePK4CCwrC4mhbHOvkb+e7tW8AUcErg9Mzq11y8fJVngyakuD8lGBNMDOnTl8Qc85BMwgJraqkqLBky5aVOr/Wnn75dTp9HTaWWrZuQkEVylKBQvnZ3eDDRcIQAQiEIShcTDCxeZSzWb6OFBSjnG3D5qSgyPWwHcoRiflxxk8UNiGMrl25xrZIeWAdzVmwgo4cO8WPw1uULVWCFs0JpZLihsDbDZC/k9KgqQpdQcWGXyQlOcWe/HfuJPdpYPB1lXNZIH9eKlTQP0EIAYRhb/hRseQ6Mex4nj61bxkuWbGGLlyKEkuug/SCkiWKiCUD+DpURNQTkMZRwD+vWCLeVL9xU+0hhQRW26amM7wqLHCWwm9Srnxpmv79l7Tqr5+pb/93KV/+fOxHZWFa4sNFgAsKZIHNOxIUY7IVFKMscV4KilF+P/4RXWBP9AHvDqTfF6/kjs/UAlnBiBJA1KxABYDpjtfGFizgzysGLhoqswRPl2aNatOy+ZMTBgTH+blwydpM9wZNGtTkb5p8/Dh1hsTYujNczCUCJ7UKEN9ypUuKJYMH7Noj3OwusbFxdq8lfGgLFq9Wus6O8MuVi0fEzOx2MSTuDg3rVU8ivucuXqZ4hTdm4F4twoTb7BOywivCkpNViuDgCvRal470/exJNGNWKJUPKsMru6z8T/hkEhSUs20dCQqfbMvYWnKZLSaUYRS7SHaSli5YSqMGf05XL1/BYaUq+w8d59aECoWZGTxsUHfasWYu7Vo3j3av/5kW/RjKK3OJYoW5B75F0zo0ZnjfJC/Bh98AJn+xogUdTvBhqYCwr73t5dSwbjUudrv2HRZbOAcWVcO61fnUoE41qlW9kktPOFh6tqg6XhENwnCjZp6yio/uIO6ya98hu03apSvX0akzas0HR2Rl1zBXzqTnJke2bFSpQhnLCc1h29+qQlC5QOr+5stiyeAk+x2IRlmBlkf+/K69ztijPJbChQtS7ZCqFBBYglq3acKtEkMijMovP1HGF/m8gRQTY94o55Mol0clt5Xr4H/msuhb0bR5/Rbas303RRyKwBpu4UkeC0zYWXOX0ZiJM0SJY/DEQB7HoN5viZJEIBxbdoTzmxrDZ5YtXUJ8Y4Cn5Jlzlygy6qooSQoEdiw7BpXoAp5ePd5+RSwlp3zZAP5UHfTJRO43smJw/27Ur0eXBKsrLu4eTf1+Af0wb7mSz6l/r648IVACy+DF1/op5Yh06dSGxg7vlyCquIcw7vJbvYbzeXeAFbnyl6n8UwJn8LBRX9Oa9dt5npI74Px0bNuEQsd8lMTZDIcxmtNWHDp6kmbNW0b7DxwTJdZA5Ed/0ichZ0Yy4esf+H2L/nfOKBVQjL74rD/VrRUsSqzxyGJp/UJTGjCoB730chvKzNpv0kKBlYh56UPBtcVkzNuUsQ2M7djE5431DOtELIv9yW1Rdu9ePC2Zv4Rmhc2i+TPneSQqnoJjeuyCaRzv4EmM0G4jVuE/7Pt2MlEBiNCUKVWcWTa17E71alflTxcrcHMXKVTA7j7kJE11VFAVDJ9MopmN5LL2bRpTaXa8KuB1LWYQBoU4WYEmI5qKOHcSVHqMbOiuqICr125SnI1vafuuA3Tw8Am3RQWgOQH/im0+SNEiBSiAlTubkPPz67K/2DGoNRFB88Yh9PnH7/MAgC3nLkTykLwVeOgWYk12V/BIWAoXKchuJsNvknQSgsAm9h9fxkXGPK41Jik6uEQJ23FLBOtKIRLbsn9yHYRb161aR5NGh9Lyhctp55adKe708iY4D78uX0Ojv/yOp/rbggpqjm64wvmLkTyEawX+RhZf69weXAOV/WVlzSrcfGZhkZgjH87A2MNmYLWpJKmhuQURNverevL4CW3Y4nkky9xlAvN46R4ExxOQDl++TFJ/kAqHmaUyKWwObd99gFmuan6vxvVr0McD3+GWim2/M/jpbt6M4Q9zK9AcL1wwFYWFCwD7xLFJ/4kUC5RzMcEk1sH6WA8TLxPlUlD4vJiwrrE/ufyMTkacpFFDR/MQ8qF9B/lwCWkBVB4kH6ly4+ZtHkFq32UAtenUm2AVeEMcN23dq/SS/dy5slNwlcQ+NY54+kztmBA6Lc3MZVuusEp41EGOii2BJZJujybQg/vW1zdPnlxUqXxpsWSAe9BTAQC3TElyaIKs27jDI2sFoJuEjPCpghSDcZNm0lbWTFZ9rU714CAaPbwvd2zbe1kfmtS3Y6z7msESRMRN1Xcn8UhYgBQULgQQAFYmBQVIYcDFloKCSZaZBQWbYML++LqYZxcy7k4c/d+4yfTpoE/pxNHjvN+P3H9aAE9qmLIYO1cV3CA3b0XzivdGj2FUrlZH+u7HRbzPiLs374lTF5SaD365c1G1ykFiyTF484JKVKgYs1zx+2Gqy+mjEaH0Xv+RShUBzle8GtcM/DIqwoZmEJzNtljlhKCyWb0d83CE4VCGExiZz1FXb/Ble+DhYs9iswVNoLx+SbseOAMC+fHIr3jUDL34VSgdWJymhQ6ngOJFuHVqDzyAVNIIfJmglA5MmlSngkfC8pipAa/8EAS2bCsoiATh1jAExCgzJkOM5HLiPhIFBVP07VjaumEL9XmjD+38e0eabvIgMxYdy1RuLnvAWfnFpFnMiulPv/2+weWey6jAcP6qgGZLQAnrp+bKPzcpCcuGzbupUdt3KbhBZz5VrteJFrHmnsr18mHna+qX/0lSAfBb0G1BxUxHp1Xc/GZg5mN7Z1QKKs0d1LZNBDPwqQA4w/H+cUdkzpyJ8DpfnFcr0KxAz2YVkN/zdu8RtGP3QVFiTRD7TT9NH8etSGcgFyo21rqpCUsFkUpX8dhiwaWHmJjFwywoxpQoHFJQIByYEkUmsRw3FNr2q1espplTZ9EDxf4izxOEABEuNndHdxWcR6SJf/rFNN572ZUMW+RtwP+kgu0wDI7Yuz9C6SnJrz8TETm5QsN6NZJFK06dvUDXFHJQIAoYBN3WTMeL86zAOMt4oiMr3BHhB5l1zJrb6zbtcNrvq1qVIN5csLLOcLzwB6l05Nt3MIIGfDzeYXcHe9QPqUqzpo6iooXzixL7oH5du3FbKRyPcxtYMpUtFi4U7KaCGEhBSBATPm8Ih1lQcN8lrMMno8y4OY2JzfKLFHkhMs34UayApYIoCEK4riQS2QNZqPMWruShQGcd9MxEXr7GfTdW4OZWeWIaIqFmersL3kY5fPB7yfJdDh05SRcj7YfUzaBzKcYzsTX3123cKeYcg7+JBEVnjnLkeMBPNHveclGSHOynRZMQfk6tks18fNJT7RqVxZJjduw5SGMnfk9Hj50WJdYg+jNyWG/eJLUCw2BcYc06FQs3s28mJlTW+7TFQ2ExBIX7WTCxZcNSwachKPjeLB5JytjEy7At/97YJ/aRhbWdO3Z5mXp82Jtq1K1J6U3hxLQKks7e6tKOJowa6LKzyxb4GOYt/J3fACrA0olUSPXHE7pGVWv/Cq5DSgFxa9KwFn328fvcH2DbfMRQB8iZsgJNICTj2QLHpBWZMhpPYjhTnYHoHUb5cwRyPEKYWMCvZBWtwe+25+Q2s3vfEZo4ZQ6FH0KKv9pVaMrO5dAP3mH7Vgvtw7d37YZaz3s0g6zOkT08Exb2u6VDNkFQ+DKERi5LwYD/RCxjXTbDBcVcxpalSLG7jYqULE51GtWndwf0ovHfTaLRYRNoeOgY6jG4LzVv15rKBVekvP7qDtPUAG3odsxy+Wvpt9S3RxflZoc9YmLv0IfDQ8WSY3AekZ6tcrNkZAKNV8tagfAmKou3QX5L6NiPaPK4wdwfYM9iiH+k1oMbv8Ve+982/8QeECWMzmeVHbzh711iLjkIHbdp2YA3QVX6DkFAkXXtCDjLR4wNo33hR5WsCeyvMWt+jx3Rj3dpsHJGS9DEVh3So4ydfCoVPBIWYAiCIQr8H5/HzW5MsFwMsTDWT2juiO2M9cQ6xiqmfTzj7xbKmiM75c2fn4qWKE6B5UpRCBObLj270eAxw+mLmV/T9OXzaMrC2RQ6bwaNnx1Gn4d9SW9/0IvqNm9E/oULUkZmMmdkN1IG9pRC13FHnnJvgcoSWLIYDR3wb9q78RcaMaQnzwOAFePq38YwlFYgigQLR6X/SgbWvlcJdyIDWNXHo+qwhuge3LqYXu3QkkeC7G2Haw6HsVKfK3YuYSWauRh5xTL3Bn4wnIOgcgGUy0JYnEXo0OO3c4cWzFK8TlevWVdURI7yOeghDAdxn8HjKOLEGaWoIM4dhvr8+r9DeVQO1pAqMTFxyv3NKgcl9X+p4lEN480fLgiGcJgnSAe3ZrhAsDJWaE9QjO0N+Hp8wnY267J/8u8Y5ca2Bukoo68vZWXNp+x+ucm/SGGq3aQhde3bk0ZMDaXxc2fQ6JlTacQ3k6jbh/2oYfs2FBBUjvIVYqKjkCjmLrj4aHv37NaJNv0xm9Yun0EvtGhAxYsWEmtYA+ehlZMN/iirtGyJahMN/WGsQtf4fQix16lZWWm/aN7sP+A8Q/r8xSg6elzNt4B+U4jImNm4ZY+YcwxELTAAY82k58KkKoy2vPNmRy5S+F0qoVt0o7AnAGjGvtlzGF28pNbHDcdbtXJ5+mHaKJeDBahXN29HJ8nRcUa50gFizjU8EhajgouKz6ZEkRECgDI2YwiFsa4UBogOjF2ISuJ3SQWFT6b98W35vLEO+2D7MbaT+0N5wrp8mVk9CElmy0Y5/PyoQu2a1P6trtR75DDq3Ls7FWAi5C1wbMhLsdc3xpdZTXhKfjPpE/rqv0O4b0GVkxZjZsCyUB19DINZW2E4bnH2nAPr69WXWnKnYbUq5UWpc4aNmuI00nTp8hXL3ytp3iQkmSiodEFA86cYs2QBmmbu6Eq5MiWpU/sWvMmG1ACVyKU9fxB8Kt16j2BNKXVRQZeLWWEjuUC6CoIBl5mFZRXBAnDcliim/hA045mw8AosK76o/EwpeOVnC9xCQQVHOV/fEA6MAJdQjvVEOV9m/5NTsjK+rvy7hjihnAuKLBf74+X8M3F9+fd5SJRdIDQLfJxEBVwB+9y97zCNDZ1Bk6fN5U9ee+DGKF82kFo3rydKrEFI1RnISVDNcG3VtI6YcwxuPpVer5nY+XuxVSMqy9r31YMrJKvk9rh89Tr9tX67WEoOzHQMQaFCm+bJfUUqDmxf34wJA2XD4kK3FFeBsxT9m/DkR2Ys7jsrMC6vBPfn2o07aPiYqS6JyoutGtK4Ef1Yk8p1UQGwQs9fVHsIoU+T1YDijvBIWOKYCZhQadlyYsU1KjMvYxNOIi9nC3JdWcbX4eXse7ZkCIBYR6xnWyYFxRArYzLWM/ZnbGdTbvrEP8wjKe2hF8Zsgahs2xnO066RzPT9T0tp8KeT6OvpP/M2vy3o/IWkMhVgFTjrp4Hfg3cVRbGnkAqvdmgl5hyDG10lJR5NCVhe8B1ULB9IBfytu9ZjqEkMdYme2PaANfNIcQwY22EWgUrmMZy+eBoDJMm56mBvVL8GH1YCIB/khOLwjmbHLcbVnfHjYrat2pizElimIyd8Sz0/GK00oXe62ZpFRrK9Pmr2qKrQ7cMRHgnL4vmLaerEaXTnjjGMHyozr9DsO1mhIQLGMptEuRSUhMrPK7pYRrncnhUkK+OTWJd/ijL2PV9PlEvxQRkKpKCgHGZg+NYdtGLWXLru4dgtEBWMWTJi3DTe8xWOR3j0d+09TN/OWsjazp9Q538PoV4DR9P7H47h6fs9BoyiYyfOij04B08MZ/4L9nP4gFYqiWwQguJ20t9twbt8zp5XGX3+GWUQkYhmDWvzMT+swPlC0tdf67eJkkTwG/A+KNVOdrbvt0HKvZWvA5ETZMjKc4rkPFc7fXbr2oEJk5GrBP+KSkoAjrWgqcsH+kKdY1atiqUjwT2Mbgaw+Fav26o0RbD7zBxhgrBHXVFLYUB2sru4JCx4eiJMJ03eGGYG/r1mEw3uOYTWr1rHe5Xix/NKzb7HKcONbwiBrNyJlR9LUiiMciEGpjJzuSEuotxUZqwjJ6OcI+bZURnHxFaIi46hacPH0C9TptOVi5fYMT/mv4e/L9oNcOF6DRzDcyfM3nwcH5yuMJPxfptVa7fSH39tIfgAYK7z5pgCdWtVEXP2QX8alfFOAJ7MKlEpVBRYQVbgLMv9QQDhSFTpzQwBwHl4+ChpQhkiFRjnFufOCgzsbJtfsXXnfktHNwQBVoq8h/EeIpVMWEnblg2omumlaPHxj+wOq2kLOgWazw38Min9XiiAAdERjZPg/Djr82SmCjs37uKSsMCD3q9nFwqbOIxqVK2QkGF6++Ytmv3NbD6UwZGDR+g+e2rg3pAV3a6gYOLzScUAH7blxrzYVpSZBQUOXGPeWBcrYh6Cgs9HDx/RzavX6I+5v9DEAUMo6pxhuuKGKlwoPw18/w0esXEFWD2wVDp3+8jlfj2qwMn42dD3xZJ9cHOqjlyXO5d1xq08vyo0qpv0fU19uv+LCln0UZGgp+7m7fvFkgGEBbkcKrzQsqGYS2RfeIRldAwPkIo2vaGtclkkELI2LRrw4VfBIyaMFy9FKWVHh1RPHBYCDzjen0kxkucJGKgqSxajnsIiPHPuotJDDb2ay5RyL4cFuCQsAIqP1PUZX31G73XrxKMBeGrh9QX7d+2jqV98TcsWLKVjRyK4SWtUeCEMqOi8svO6n3ATYx0s8/X4+kY5Fw9RjnVkmSyXgsKFS0xYRwoKhie8de067V63keZPCqOtq9bQQ/Z0x9MKTrtXO7SgaUwkMXqZlYPUDMxt9EfBi8TQGzklgOi91qmNZRQHpvh2xU5q7ds0EnOOgWCq3vDdXu8g5gxwI6qO24GEMlhyGE1fggGwVAcKx3jAtqCy4h5whq9vJv7WRDNWuSwS/M2QGpUSLI+7rFmxJ1xtrNoypjF5cc2irlxXSoLzFNzn0gBAM10lLwqgk6pt505XcFlYJHjPyId93qLxIwfSv1/vyPMCwJ3YWFq9dCXNnjKDVi/7nS6cOc+quaz0QiSEAJiFQwqKbEYZ6yWWy/XlPoxt2X6Z+ibuz/hk//EXwu/dtIV+/2kBrV6wmKLOX+BKjbY1hgbE6yJhDcDyMo8+pgKEZcGSVdwfkBLgGBHxePu19pb9juCMO3dezcuPHBorMAC16rtmkLlqyxud24o5a1at2ZJk/Fg06xw5dW2BiW/LXWbmW/ks0JsaL9w3o5IwiH5FEJb8plHuIcCq0TjzkBoYsgCv+0hp4NfBgOgY5B7AVXFWMS2BNxcVmrWOcH9LBhxhSMse0r8bH3O0U8cWlCNHNl7Rr7An0vKfF9O8736g9X+sodiYWKPyswufIA5sgpBgfS4obJl98HUSxEKU80mU8++koEjrhJdjnad0fF84LZk+m1b/vIiO7mZteXYDwErBKGX//XwAFxVYXbbOP1WQ9Daoz5s8j8LbIFqBl29jDFmrXqoAA06rODtxrYoVte5MhojQ/oNq46ni6W8L3p7orMewGYTk4RdBdA7XEpEoVcet2W8A4DeIUbBYcB5sx36pH5I8v8QWOHkb16/Jt5egol67bh0ah7PYnHOCvjqp8QoXDC8KQZSgKaT6EEIv7HTsn7t4JCwSVFCMt4q3/U/+YggfSRwVGc2OU0dP0LK5v9LMSdPo+JFjvOKbrRDcBgmCIsr496LcmBLXlcKCfwliJMrhR/nfj/Np+cyf6OC2nXQ31khbRjsTeQehYwbTy+2a83erSOedOyBcid87/rMPaNLYjzxqi5qBYH32cS/eBQBPUZVjhFmtAqwyH4V8DTginXW6M2Pv+CA2L73YVCxZM2vucp7gB0HZvGO/pTAAWMu2lhz6Nqn0lUJls42yNWlYU8zZB0NidGS/yfYVo+glDDGzApUUI/NLEBK/HZ3yr3DB+4v8TU1pNNujFF/eh86SHlQR7wgLQKpyXr9c1LJJHVo8ZxKNGtabRyFwo9xjN//RA4cpbNSXNGfqd3woBEMMkgoHb97YKUcZCrEvrCMFxSh+RhgQeM/GLfT9qPG086/1FH3zFi9HZWrVrC4tnP0l9X73XzyL0N3xZG1BpcLToFOHFrR07v/xwYoQYVCJutji6+tLQwZ0ow0rZ9Hrr7blyU+qwreFVUYVcjPR8jE9be2Bc4bIFsTfiprVKoi55IwZ0Y/fDyrg6Y1+SchdwdCPKmC4BdtIDsK3txQEsVLFMsnObUH2oLFnfUnw3mJ03LS9tngXkEq/nprVKyURQkRmVPvqeAKidObXjEQcP62UcYvfWbJ4UeV70B4uvf7DVRCnD5vxM63duJMru7wIufL4UctX2lG1+nX58AjpRGXHkeBg+CQPi31iDk0e85Hi+wf37tP1qCj665cldOZwYpgSfUjwIrBPh/QQ5qt3xMQKVEiMI7I3/Aht3LqXjyuCDFY4kY3Kmo6b0uhYiUgEQsnI/4ADHANSu8MNVpmQqGgFKk5+1t42m/L2gP8IwxZYkTNndsrDxMoRaOao3lpo/kGk0ZlPpSmEcwdnu/nGR0VFb2yrv4nKZm+kNzQBHQkqhr+050RH1q2Kn832eBHJUxmb2FNyZM/KrOBcCSKvem3hnEbOjStheFtSVFgAciyQZbpw6Z+078DRhIuPnsalKpanOs0bs88gypqDKSs78fJw8CnmEq0T/r9nzOJ5QNcioyh80xbat3k7xd83IjOoPDDhOrRtQl07vaAcRkwp0KbFDY8QKB9q8dlT3mzMliULv9HcsW40mn8CKS4sEjjXVq3dQn+u3Uo79x5OeDpkz5WTKtWqThXZVDa4Cn+a44AgK/LIpKDA4rnBBOXwrj10aPsuus7mcfhQZIzL0appXerwQhMKKh/otSaPRqNxnVQTFoAnOMKL6zbtpMW/raHTZ420cYS18rKmS7lqwVSzSUMqKF4FgUOTB/fg3j3a//dWOrJrL0WeOccjPQBtV1goiPIg/OlupymNRuM9UlVYJGgeHT95jndG++2Pjdy7DjD8pH/hQlS1QR2q0bQRH+AJnDxwmLasXEWRZ8/TfbzWQRxyzWpB1Kd7F6papTxv7+umhUaTNnguwgLwZzGk357wozQu9HueESgPBdGcIqVKUs2mjenUoSN0dM8+eszWld8j/Deg1+s8cxZhPC0oGk3a4rkJixl4qxcuW01hMxbycV7thcTgR0HoDKORo78SXt3gSThMo9GkHGlCWCR44/70HxfRpi176NLlawmhR0RQgiuXo7e7tKMm9Ws5HUZAo9E8f9KUsACkd2/dFU4r/tjIew+XKFqIJ7l1eCF55qNGo0mbpDlhAQhFI4EIHbyKFspv990zGo0m7ZImhUWj0fyz0eEUjUbjdbSwaDQar6OFRaPReB0tLBqNxutoYdFoNF5HC4tGo/E6Wlg0Go3X0cKi0Wi8DNH/AweLB7fBFyBxAAAAAElFTkSuQmCC;" vertex="1" parent="_PgXoPrQOseA2Y3eEaYu-5">
          <mxGeometry x="110" y="30" width="203.41" height="60" as="geometry" />
        </mxCell>
        <mxCell id="_PgXoPrQOseA2Y3eEaYu-19" style="edgeStyle=orthogonalEdgeStyle;rounded=0;orthogonalLoop=1;jettySize=auto;html=1;entryX=1;entryY=0.25;entryDx=0;entryDy=0;" edge="1" parent="1" source="_PgXoPrQOseA2Y3eEaYu-3" target="_PgXoPrQOseA2Y3eEaYu-11">
          <mxGeometry relative="1" as="geometry" />
        </mxCell>
        <mxCell id="_PgXoPrQOseA2Y3eEaYu-3" value="demodbzmysql" style="image;aspect=fixed;html=1;points=[];align=center;fontSize=12;image=img/lib/azure2/databases/Azure_Database_MySQL_Server.svg;" vertex="1" parent="1">
          <mxGeometry x="800" y="170" width="48" height="64" as="geometry" />
        </mxCell>
        <mxCell id="_PgXoPrQOseA2Y3eEaYu-7" value="demodebezium-ns" style="image;aspect=fixed;html=1;points=[];align=center;fontSize=12;image=img/lib/azure2/iot/Event_Hubs.svg;" vertex="1" parent="1">
          <mxGeometry x="790.5" y="320" width="67" height="60" as="geometry" />
        </mxCell>
        <mxCell id="_PgXoPrQOseA2Y3eEaYu-20" style="edgeStyle=orthogonalEdgeStyle;rounded=0;orthogonalLoop=1;jettySize=auto;html=1;exitX=1;exitY=0.75;exitDx=0;exitDy=0;" edge="1" parent="1" source="_PgXoPrQOseA2Y3eEaYu-11" target="_PgXoPrQOseA2Y3eEaYu-7">
          <mxGeometry relative="1" as="geometry" />
        </mxCell>
      </root>
    </mxGraphModel>
  </diagram>
</mxfile>
